<?xml version="1.0" encoding="UTF-8" standalone="no"?>
<svg
   width="55"
   height="55"
   viewBox="0 0 55 55"
   fill="none"
   version="1.1"
   id="svg6"
   sodipodi:docname="teamdesk.svg"
   inkscape:version="1.4.4 (dcaf3e7d9e, 2026-05-05)"
   xmlns:inkscape="http://www.inkscape.org/namespaces/inkscape"
   xmlns:sodipodi="http://sodipodi.sourceforge.net/DTD/sodipodi-0.dtd"
   xmlns="http://www.w3.org/2000/svg"
   xmlns:svg="http://www.w3.org/2000/svg">
  <defs
     id="defs6" />
  <sodipodi:namedview
     id="namedview6"
     pagecolor="#ffffff"
     bordercolor="#000000"
     borderopacity="0.25"
     inkscape:showpageshadow="2"
     inkscape:pageopacity="0.0"
     inkscape:pagecheckerboard="0"
     inkscape:deskcolor="#d1d1d1"
     inkscape:zoom="5.5939394"
     inkscape:cx="82.5"
     inkscape:cy="22.971289"
     inkscape:window-width="1920"
     inkscape:window-height="1008"
     inkscape:window-x="0"
     inkscape:window-y="0"
     inkscape:window-maximized="1"
     inkscape:current-layer="svg6" />
  <path
     fill-rule="evenodd"
     clip-rule="evenodd"
     d="m 27.854,4.7510003 c 5.985,0.007 10.835,4.856 10.842,10.8410007 0.038,6.008 -4.802,10.908 -10.81,10.945 h -0.032 c -6.04,-0.01 -10.934,-4.905 -10.944,-10.945 C 16.964,9.5870003 21.849,4.7490003 27.854,4.7510003 Z"
     fill="#c32026"
     id="path1" />
  <mask
     id="a"
     maskUnits="userSpaceOnUse"
     x="0"
     y="22"
     width="54"
     height="24">
    <path
       fill-rule="evenodd"
       clip-rule="evenodd"
       d="M 0,22.512 H 53.2 V 45.515 H 0 Z"
       fill="#ffffff"
       id="path2" />
  </mask>
  <g
     mask="url(#a)"
     id="g3"
     transform="translate(0.9,4.7340003)">
    <path
       fill-rule="evenodd"
       clip-rule="evenodd"
       d="M 0.584,22.512 A 0.584,0.584 0 0 0 0,23.096 v 5.114 c 0,0.323 0.261,0.585 0.584,0.585 h 12.387 a 4.974,4.974 0 0 1 4.965,4.966 v 11.17 c 0,0.322 0.262,0.584 0.583,0.584 h 5.015 a 0.584,0.584 0 0 0 0.584,-0.584 V 32.444 a 9.948,9.948 0 0 0 -9.932,-9.932 z m 52.032,0 c 0.323,0 0.584,0.262 0.584,0.584 v 5.114 a 0.584,0.584 0 0 1 -0.584,0.585 H 40.939 a 4.974,4.974 0 0 0 -4.965,4.966 v 11.17 A 0.584,0.584 0 0 1 35.39,45.515 H 30.376 A 0.584,0.584 0 0 1 29.791,44.931 V 32.444 c -0.038,-5.446 4.345,-9.892 9.79,-9.932 z"
       fill="#21428f"
       id="path3" />
  </g>
</svg>
