<?xml version="1.0" encoding="UTF-8" standalone="no"?>
<!-- Uploaded to: SVG Repo, www.svgrepo.com, Generator: SVG Repo Mixer Tools -->

<svg
   height="540"
   width="2300"
   version="1.1"
   id="Layer_1"
   viewBox="0 0 1443.459 338.89927"
   xml:space="preserve"
   sodipodi:docname="email-lockup.svg"
   inkscape:version="1.4.4 (dcaf3e7d9e, 2026-05-05)"
   inkscape:export-filename="email_me.png"
   inkscape:export-xdpi="96"
   inkscape:export-ydpi="96"
   xmlns:inkscape="http://www.inkscape.org/namespaces/inkscape"
   xmlns:sodipodi="http://sodipodi.sourceforge.net/DTD/sodipodi-0.dtd"
   xmlns="http://www.w3.org/2000/svg"
   xmlns:svg="http://www.w3.org/2000/svg"><defs
   id="defs6" /><sodipodi:namedview
   id="namedview6"
   pagecolor="#000000"
   bordercolor="#000000"
   borderopacity="0.25"
   inkscape:showpageshadow="2"
   inkscape:pageopacity="0.0"
   inkscape:pagecheckerboard="0"
   inkscape:deskcolor="#d1d1d1"
   inkscape:zoom="0.42390063"
   inkscape:cx="1177.1627"
   inkscape:cy="428.16638"
   inkscape:window-width="1920"
   inkscape:window-height="1008"
   inkscape:window-x="0"
   inkscape:window-y="0"
   inkscape:window-maximized="1"
   inkscape:current-layer="Layer_1" />






<text
   xml:space="preserve"
   style="font-style:normal;font-variant:normal;font-weight:normal;font-stretch:normal;font-size:83.6788px;font-family:'Droid Sans';-inkscape-font-specification:'Droid Sans';text-align:start;writing-mode:lr-tb;direction:ltr;text-anchor:start;fill:#000000;stroke-width:0.627591"
   x="383.35294"
   y="270.60208"
   id="text8"><tspan
     sodipodi:role="line"
     id="tspan8"
     style="font-size:83.6788px;stroke-width:0.627591"
     x="383.35294"
     y="270.60208" /></text><text
   xml:space="preserve"
   style="font-style:normal;font-variant:normal;font-weight:normal;font-stretch:normal;font-size:167.358px;font-family:'Droid Sans';-inkscape-font-specification:'Droid Sans';text-align:start;writing-mode:lr-tb;direction:ltr;text-anchor:start;fill:#ffffff;stroke-width:0.627591"
   x="303.96976"
   y="155.39445"
   id="text9"><tspan
     sodipodi:role="line"
     id="tspan9"
     style="font-size:167.358px;fill:#ffffff;stroke-width:0.627591"
     x="303.96976"
     y="155.39445">havenhamelin</tspan></text><text
   xml:space="preserve"
   style="font-style:normal;font-variant:normal;font-weight:normal;font-stretch:normal;font-size:150.622px;font-family:'Droid Sans';-inkscape-font-specification:'Droid Sans';text-align:start;writing-mode:lr-tb;direction:ltr;text-anchor:start;fill:#000000;stroke-width:0.627591"
   x="540.31891"
   y="293.92844"
   id="text10"><tspan
     sodipodi:role="line"
     id="tspan10"
     style="font-size:150.622px;fill:#ffffff;stroke-width:0.627591"
     x="540.31891"
     y="293.92844">@gmail.com</tspan></text><g
   id="g1"
   transform="matrix(10.522613,0,0,10.522613,-15.575121,1.2926283)"
   style="fill:#ffffff"><g
     id="icomoon-ignore"
     style="fill:#ffffff" /><path
     d="M 29.229,13.342 17.634,1.747 C 17.198,1.311 16.618,1.07 16.001,1.07 c -0.617,0 -1.197,0.24 -1.633,0.677 L 11.84,4.275 H 8.005 V 8.109 L 2.673,13.44 V 30.931 H 29.329 V 13.442 L 29.23,13.343 Z m -1.104,0.405 -4.129,4.129 V 9.619 l 4.129,4.129 z M 15.121,2.5 c 0.47,-0.47 1.289,-0.47 1.759,0 l 1.774,1.774 h -5.307 z m 4.598,2.84 3.211,3.212 v 10.39 l -2.469,2.469 -2.829,-2.829 c -0.436,-0.436 -1.016,-0.677 -1.633,-0.677 -0.617,0 -1.197,0.241 -1.633,0.677 l -2.871,2.87 -2.426,-2.426 V 5.341 H 19.718 Z M 4.38,13.24 8.004,9.616 v 8.343 L 3.832,13.787 4.38,13.239 Z m -0.642,2.818 v -0.856 l 7.003,7.003 -0.079,0.08 -0.001,-0.001 -6.923,6.923 z m 0.851,13.806 0.573,-0.573 h 0.002 l 9.957,-9.956 c 0.47,-0.47 1.289,-0.47 1.759,0 L 27.411,29.864 Z M 28.262,15.36 v 13.848 l -7.046,-7.043 7.046,-7.046 v 0.242 z"
     fill="#000000"
     id="path1-3"
     style="fill:#ffffff" /><path
     d="m 12.268,8.539 h 7.464 v 1.066 h -7.464 z"
     fill="#000000"
     id="path2-6"
     style="fill:#ffffff" /><path
     d="m 12.268,14.937 h 7.464 v 1.066 h -7.464 z"
     fill="#000000"
     id="path3-7"
     style="fill:#ffffff" /><path
     d="m 12.268,11.738 h 5.331 v 1.066 h -5.331 z"
     fill="#000000"
     id="path4-5"
     style="fill:#ffffff" /></g></svg>
