<?xml version="1.0" encoding="UTF-8" standalone="no"?>
<!-- Uploaded to: SVG Repo, www.svgrepo.com, Generator: SVG Repo Mixer Tools -->

<svg
   height="540"
   width="2300"
   version="1.1"
   id="Layer_1"
   viewBox="0 0 1443.459 338.89927"
   xml:space="preserve"
   sodipodi:docname="email-lockup.svg"
   inkscape:version="1.4.4 (dcaf3e7d9e, 2026-05-05)"
   inkscape:export-filename="email_me.png"
   inkscape:export-xdpi="96"
   inkscape:export-ydpi="96"
   xmlns:inkscape="http://www.inkscape.org/namespaces/inkscape"
   xmlns:sodipodi="http://sodipodi.sourceforge.net/DTD/sodipodi-0.dtd"
   xmlns="http://www.w3.org/2000/svg"
   xmlns:svg="http://www.w3.org/2000/svg"><defs
   id="defs6" /><sodipodi:namedview
   id="namedview6"
   pagecolor="#000000"
   bordercolor="#000000"
   borderopacity="0.25"
   inkscape:showpageshadow="2"
   inkscape:pageopacity="0.0"
   inkscape:pagecheckerboard="0"
   inkscape:deskcolor="#d1d1d1"
   inkscape:zoom="0.30093026"
   inkscape:cx="882.26422"
   inkscape:cy="-78.091183"
   inkscape:window-width="1920"
   inkscape:window-height="1008"
   inkscape:window-x="0"
   inkscape:window-y="0"
   inkscape:window-maximized="1"
   inkscape:current-layer="Layer_1" />






<text
   xml:space="preserve"
   style="font-style:normal;font-variant:normal;font-weight:normal;font-stretch:normal;font-size:83.6788px;font-family:'Droid Sans';-inkscape-font-specification:'Droid Sans';text-align:start;writing-mode:lr-tb;direction:ltr;text-anchor:start;fill:#000000;stroke-width:0.627591"
   x="383.35294"
   y="270.60208"
   id="text8"><tspan
     sodipodi:role="line"
     id="tspan8"
     style="font-size:83.6788px;stroke-width:0.627591"
     x="383.35294"
     y="270.60208" /></text><text
   xml:space="preserve"
   style="font-style:normal;font-variant:normal;font-weight:normal;font-stretch:normal;font-size:150.622px;font-family:'Droid Sans';-inkscape-font-specification:'Droid Sans';text-align:start;writing-mode:lr-tb;direction:ltr;text-anchor:start;fill:#ffffff;stroke-width:0.627591"
   x="399.36404"
   y="155.39445"
   id="text9"><tspan
     sodipodi:role="line"
     id="tspan9"
     style="font-style:normal;font-variant:normal;font-weight:bold;font-stretch:normal;font-size:150.622px;font-family:'Droid Sans';-inkscape-font-specification:'Droid Sans Bold';fill:#ffffff;stroke-width:0.627591"
     x="399.36404"
     y="155.39445">havenhamelin</tspan></text><text
   xml:space="preserve"
   style="font-style:normal;font-variant:normal;font-weight:normal;font-stretch:normal;font-size:133.886px;font-family:'Droid Sans';-inkscape-font-specification:'Droid Sans';text-align:start;writing-mode:lr-tb;direction:ltr;text-anchor:start;fill:#000000;stroke-width:0.627591"
   x="653.28583"
   y="293.92844"
   id="text10"><tspan
     sodipodi:role="line"
     id="tspan10"
     style="font-style:normal;font-variant:normal;font-weight:bold;font-stretch:normal;font-size:133.886px;font-family:'Droid Sans';-inkscape-font-specification:'Droid Sans Bold';fill:#ffffff;stroke-width:0.627591"
     x="653.28583"
     y="293.92844">@gmail.com</tspan></text><g
   fill="#434343"
   id="g3"
   style="fill:#ffffff;fill-rule:evenodd;stroke:none;stroke-width:1"
   transform="matrix(20.994283,0,0,20.994283,12.173924,12.551821)"><g
     transform="translate(3)"
     id="g2"
     style="fill:#ffffff"><path
       d="M 0.004,0 V 7 L 5.031,11 9.955,7 V 3.031 L 5,3.026 V 0 Z m 7.965,8.016 h -6 V 6.969 h 6 z M 5.953,5 v 1 h -4 V 5 Z"
       class="si-glyph-fill"
       id="path1"
       style="fill:#ffffff" /><path
       d="M 6,0 V 1.951 H 9.848 Z"
       class="si-glyph-fill"
       id="path2"
       style="fill:#ffffff" /></g><path
     d="M 15.34,4.963 12.774,3.067 v 1.105 l 2.32,1.986 V 6.812 L 12.063,9.601 15.079,14 13.985,14.015 11.395,10.276 8.001,13.062 4.739,10.29 2.032,14.016 H 0.923 L 4.058,9.602 0.908,6.782 0.923,6.092 5.19,2.251 5.174,0.892 0.725,4.964 c -0.359,0 -0.707,0.291 -0.707,0.65 v 8.649 c 0,0.36 0.348,0.706 0.707,0.706 h 14.617 c 0.359,0 0.65,-0.346 0.65,-0.706 V 5.614 C 15.989,5.254 15.699,4.963 15.34,4.963 Z"
     class="si-glyph-fill"
     id="path3"
     style="fill:#ffffff" /></g></svg>
