<?xml version="1.0" encoding="UTF-8" standalone="no"?>
<svg
   viewBox="0 0 221.105 198.94016"
   height="198.9437"
   width="221.1057"
   version="1.1"
   id="svg2"
   sodipodi:docname="itch_io_logo.svg"
   inkscape:version="1.4.4 (dcaf3e7d9e, 2026-05-05)"
   xmlns:inkscape="http://www.inkscape.org/namespaces/inkscape"
   xmlns:sodipodi="http://sodipodi.sourceforge.net/DTD/sodipodi-0.dtd"
   xmlns="http://www.w3.org/2000/svg"
   xmlns:svg="http://www.w3.org/2000/svg">
  <defs
     id="defs2" />
  <sodipodi:namedview
     id="namedview2"
     pagecolor="#ffffff"
     bordercolor="#000000"
     borderopacity="0.25"
     inkscape:showpageshadow="2"
     inkscape:pageopacity="0.0"
     inkscape:pagecheckerboard="0"
     inkscape:deskcolor="#d1d1d1"
     inkscape:zoom="0.88465193"
     inkscape:cx="185.94884"
     inkscape:cy="35.607224"
     inkscape:window-width="1920"
     inkscape:window-height="1008"
     inkscape:window-x="0"
     inkscape:window-y="0"
     inkscape:window-maximized="1"
     inkscape:current-layer="svg2" />
  <path
     color="#000000"
     d="M 28.828,1.2286113 C 19.184,6.9546113 0.182,28.785611 0,34.510611 v 9.478 c 0,12.014 11.23,22.572 21.424,22.572 12.24,0 22.44,-10.146 22.442,-22.187 0,12.04 9.85,22.187 22.093,22.187 12.242,0 21.776,-10.146 21.776,-22.187 0,12.04 10.47,22.187 22.71,22.187 h 0.22 c 12.24,0 22.72,-10.146 22.72,-22.187 0,12.04 9.53,22.187 21.77,22.187 12.24,0 22.09,-10.146 22.09,-22.187 0,12.04 10.2,22.187 22.44,22.187 10.19,0 21.42,-10.557 21.42,-22.572 v -9.478 c -0.19,-5.725 -19.19,-27.5559997 -28.83,-33.2819997 -29.97,-1.05299999 -50.76,-1.23399999 -81.73,-1.22999999 -30.959,0.002000002 -73.189,0.485 -81.719,1.22999999 z M 87.581,60.902611 c -1.170765,2.040236 -2.620775,3.906938 -4.308,5.546 -4.789271,4.697307 -11.231664,7.325976 -17.94,7.32 -6.985,0 -13.356,-2.8 -17.976,-7.322 -1.67,-1.64 -2.94,-3.394 -4.11,-5.436 v 0.004 c -1.16,2.046 -2.79,3.798 -4.46,5.44 -4.80172,4.696556 -11.253296,7.3235 -17.97,7.317 -0.84,0 -1.71,-0.23 -2.42,-0.47 -0.98,10.25 -1.4,20.04 -1.544,27.189999 v 0.04 c -0.02,3.63 -0.035,6.61 -0.054,10.75 0.19,21.51 -2.13,69.7 9.48,81.54 17.99,4.2 51.094,6.11 84.31,6.12 h 0.003 c 33.214,-0.01 66.32,-1.92 84.31,-6.11 11.61,-11.842 9.29,-60.032 9.48,-81.535 -0.017,-4.14 -0.034,-7.122 -0.053,-10.75 v -0.04 c -0.15,-7.141999 -0.565,-16.934999 -1.55,-27.182999 -0.71,0.24 -1.587,0.473 -2.43,0.473 -6.71796,0.0064 -13.17093,-2.620055 -17.975,-7.316 -1.675,-1.645 -3.3,-3.397 -4.463,-5.44 l -0.005,-0.007 c -1.167,2.04 -2.438,3.797 -4.113,5.436 -4.62,4.52 -10.99,7.32 -17.973,7.32 -6.983,0 -13.32,-2.8 -17.94,-7.32 -1.6863,-1.640389 -3.1368,-3.506858 -4.31,-5.546 -1.15702,2.038154 -2.59288,3.904831 -4.266,5.546 -4.80425,4.699258 -11.2596,7.327354 -17.98,7.32 -0.244,0 -0.49,-0.01 -0.73,-0.02 h -0.008 c -0.243,0.01 -0.486,0.02 -0.73,0.02 -6.986,0 -13.357,-2.8 -17.978,-7.32 -1.674632,-1.640075 -3.111863,-3.506119 -4.27,-5.544 z m -18.462,23.873 -0.002,0.008 h 0.02 c 7.31,0.016 13.81,0 21.85,8.783 6.34,-0.663 12.95,-0.996 19.58,-0.985 h 0.01 c 6.63,-0.01 13.24,0.33 19.58,0.99 8.05,-8.78 14.54,-8.76 21.85,-8.78 h 0.02 v -0.01 c 3.46,0 17.27,0 26.9,27.039999 l 10.348,37.1 c 7.665,27.6 -2.453,28.28 -15.073,28.3 -18.72,-0.69 -29.08,-14.29 -29.08,-27.88 -10.36,1.7 -22.45,2.55 -34.535,2.55 h -0.005 c -12.086,0 -24.172,-0.85 -34.53,-2.55 0,13.59 -10.36,27.18 -29.078,27.88 -12.62,-0.02 -22.74,-0.7 -15.073,-28.29 l 10.34,-37.1 c 9.63,-27.039999 23.45,-27.039999 26.9,-27.039999 z m 41.44,21.249999 v 0.007 c -0.017,0.017 -19.702,18.096 -23.24,24.526 l 12.89,-0.516 v 11.24 c 0,0.527 5.174,0.313 10.35,0.074 h 0.007 c 5.177,0.24 10.35,0.453 10.35,-0.073 v -11.24 l 12.89,0.514 c -3.538,-6.43 -23.24,-24.525 -23.24,-24.525 v -0.006 l -0.002,0.002 z"
     id="path2"
     sodipodi:nodetypes="ccsscscsscscssccccccccccccccccccssccccccccccsccccccscccccccssccccccccssccccccccccsccscccccc"
     inkscape:label="path2"
     style="fill:#fa5c5c;fill-opacity:1;stroke:none;stroke-width:0.999997;stroke-dasharray:none;stroke-opacity:1" />
</svg>
