<?xml version="1.0" encoding="UTF-8" standalone="no"?>
<!-- Uploaded to: SVG Repo, www.svgrepo.com, Generator: SVG Repo Mixer Tools -->

<svg
   height="540"
   width="2212"
   version="1.1"
   id="Layer_1"
   viewBox="0 0 1388.2318 338.89927"
   xml:space="preserve"
   sodipodi:docname="email_me.svg"
   inkscape:version="1.4 (e7c3feb100, 2024-10-09)"
   inkscape:export-filename="email_me.png"
   inkscape:export-xdpi="96"
   inkscape:export-ydpi="96"
   xmlns:inkscape="http://www.inkscape.org/namespaces/inkscape"
   xmlns:sodipodi="http://sodipodi.sourceforge.net/DTD/sodipodi-0.dtd"
   xmlns="http://www.w3.org/2000/svg"
   xmlns:svg="http://www.w3.org/2000/svg"><defs
   id="defs6" /><sodipodi:namedview
   id="namedview6"
   pagecolor="#ffffff"
   bordercolor="#000000"
   borderopacity="0.25"
   inkscape:showpageshadow="2"
   inkscape:pageopacity="0.0"
   inkscape:pagecheckerboard="0"
   inkscape:deskcolor="#d1d1d1"
   inkscape:zoom="0.3345499"
   inkscape:cx="1256.9127"
   inkscape:cy="458.82543"
   inkscape:window-width="1920"
   inkscape:window-height="1008"
   inkscape:window-x="0"
   inkscape:window-y="0"
   inkscape:window-maximized="1"
   inkscape:current-layer="Layer_1" />





<g
   id="g6"
   transform="translate(12.290825,12.551574)"><path
     style="fill:#ffd15c;stroke-width:0.625325"
     d="m 314.05662,300.73524 c 0,3.91813 -1.30761,7.18376 -3.92221,9.79563 -2.61522,1.95938 -5.22981,3.265 -9.15264,3.265 H 13.335843 c -3.268398,0 -6.5374214,-1.30625 -9.1526403,-3.265 C 1.5679838,307.91837 0.261,304.65337 0.261,300.73524 V 109.38765 h 313.79562 z"
     id="path1" /><path
     style="fill:#f8b64c;stroke-width:0.625325"
     d="m 310.13441,310.53087 c -2.61522,1.95938 -5.22981,3.265 -9.15264,3.265 H 13.335843 c -3.268398,0 -6.5374214,-1.30625 -9.1526403,-3.265 L 157.15849,179.2658 Z"
     id="path2" /><path
     style="fill:#40596b;stroke-width:0.625325"
     d="m 314.05662,109.38765 -44.45435,32.00002 -103.94494,74.4494 c -5.22981,3.91813 -12.42104,3.91813 -17.65085,0 L 44.715342,141.38767 0.261,109.38765 44.715342,77.387632 141.46906,8.1632227 148.66028,2.9388452 c 5.22982,-3.91812695 12.42104,-3.91812695 17.65085,0 l 7.19123,5.2243775 46.41576,33.3062663 22.88066,16.326258 26.80349,19.591885 z"
     id="path3" /><path
     style="fill:#f2f2f2;stroke-width:0.625325"
     d="m 269.60227,48.653242 v 92.734428 l -103.94494,74.4494 c -5.22981,3.91813 -12.42104,3.91813 -17.65085,0 L 44.715342,141.38767 V 21.224479 c 0,-7.183753 5.883617,-13.0612563 13.074843,-13.0612563 H 228.41632 Z"
     id="path4" /><path
     style="fill:#cdd6e0;stroke-width:0.625325"
     d="m 229.07013,38.204488 c 0,5.877502 4.57601,10.448754 10.45963,10.448754 h 30.07189 L 229.06951,8.1632227 Z"
     id="path5" /><path
     style="fill:#ff7058;stroke-width:0.625325"
     d="m 195.72984,139.42892 h 10.45962 c -3.26839,7.18375 -8.49883,12.40812 -15.69005,16.32625 -7.84504,4.57125 -17.65085,6.53062 -29.41809,6.53062 -11.11343,0 -20.91987,-1.95937 -28.7649,-5.8775 -7.84504,-3.91812 -14.38245,-9.14312 -18.30466,-16.97937 -3.9222,-7.18376 -5.88362,-15.67376 -5.88362,-24.16314 0,-9.79563 1.96142,-18.285642 6.53743,-26.775643 4.576,-8.490004 10.45962,-14.367507 18.30465,-18.285634 7.84503,-3.918127 16.99704,-5.877503 26.8035,-5.877503 8.49883,0 16.34324,1.959376 22.88065,5.224378 6.53743,3.265001 11.76724,7.836879 15.03626,14.367506 3.2684,5.877504 5.22982,13.061254 5.22982,20.245016 0,8.49 -2.61523,16.32626 -7.84503,23.51001 -6.53743,9.14313 -15.03626,13.06126 -25.49589,13.06126 -2.61521,0 -5.22981,-0.65313 -6.53742,-1.30625 -1.30761,-1.30625 -2.61522,-2.61251 -2.61522,-4.57126 -3.9222,3.91813 -8.49883,5.87751 -13.72865,5.87751 -5.88362,0 -10.45962,-1.95938 -13.72864,-5.87751 -3.92221,-3.91812 -5.88362,-9.14313 -5.88362,-15.67375 0,-7.83688 1.96141,-15.02064 6.53742,-22.204392 5.22982,-7.836881 12.42104,-11.755008 20.91987,-11.755008 5.88362,0 10.45963,2.612501 13.72865,7.183754 l 1.30761,-5.877503 h 13.72865 l -7.84503,36.571269 c -0.6538,2.6125 -0.6538,3.91813 -0.6538,4.57125 0,0.65313 0,1.30626 0.6538,1.95938 0.65381,0.65313 0.65381,0.65313 1.30761,0.65313 1.3076,0 3.92221,-1.30625 6.53742,-3.26501 3.2684,-2.6125 6.53742,-5.8775 8.49884,-10.44875 1.96141,-4.57125 3.2684,-9.14313 3.2684,-13.71438 0,-8.490012 -3.2684,-15.673764 -9.15265,-20.898141 -5.88361,-5.877503 -14.38245,-8.490004 -25.49588,-8.490004 -9.15264,0 -16.99704,1.959376 -23.53447,5.877503 -6.53742,3.918126 -11.11342,9.143129 -14.38245,15.67376 -3.26902,6.530632 -4.576,13.714382 -4.576,21.551262 0,7.18375 1.96141,13.71438 5.2298,19.59188 3.92221,5.87751 8.49885,10.44876 15.03626,13.06126 6.53743,2.6125 13.72865,3.91812 22.22749,3.91812 7.84503,0 15.03625,-1.30625 20.91987,-3.265 5.88362,-2.61312 10.45963,-5.87812 14.38245,-10.44937 z m -55.56839,-20.89814 c 0,4.57125 0.6538,7.18375 2.61522,9.79563 1.96141,1.95938 3.92219,3.265 6.53742,3.265 1.96141,0 3.9222,-0.65312 5.22981,-1.30625 1.30761,-0.65312 2.61522,-1.95937 3.92221,-3.265 1.96141,-1.95938 3.26901,-5.22438 4.576,-9.14313 1.30761,-3.91813 1.96141,-7.83688 1.96141,-11.10188 0,-3.91813 -0.6538,-6.53063 -2.61521,-9.143132 -1.96142,-1.95938 -3.9222,-3.265 -6.53743,-3.265 -2.61522,0 -5.88362,1.30625 -7.84502,3.265 -2.61523,1.95937 -4.57601,5.224382 -5.88362,9.795632 -1.30699,3.91938 -1.96079,7.8375 -1.96079,11.10313 z"
     id="path6" /></g>
<text
   xml:space="preserve"
   style="font-style:normal;font-variant:normal;font-weight:normal;font-stretch:normal;font-size:83.67883136px;font-family:'Droid Sans';-inkscape-font-specification:'Droid Sans';text-align:start;writing-mode:lr-tb;direction:ltr;text-anchor:start;fill:#000000;stroke-width:0.627591"
   x="383.35294"
   y="270.60208"
   id="text8"><tspan
     sodipodi:role="line"
     id="tspan8"
     style="stroke-width:0.627591;font-size:83.67883136px"></tspan></text><text
   xml:space="preserve"
   style="font-style:normal;font-variant:normal;font-weight:normal;font-stretch:normal;font-size:150.622px;font-family:'Droid Sans';-inkscape-font-specification:'Droid Sans';text-align:start;writing-mode:lr-tb;direction:ltr;text-anchor:start;fill:#000000;stroke-width:0.627591"
   x="337.83698"
   y="155.39722"
   id="text9"><tspan
     sodipodi:role="line"
     id="tspan9"
     style="font-size:150.622px;stroke-width:0.627591"
     x="337.83698"
     y="155.39722">hhamelin</tspan></text><text
   xml:space="preserve"
   style="font-style:normal;font-variant:normal;font-weight:normal;font-stretch:normal;font-size:133.886px;font-family:'Droid Sans';-inkscape-font-specification:'Droid Sans';text-align:start;writing-mode:lr-tb;direction:ltr;text-anchor:start;fill:#000000;stroke-width:0.627591"
   x="461.05728"
   y="293.86139"
   id="text10"><tspan
     sodipodi:role="line"
     id="tspan10"
     style="font-size:133.886px;stroke-width:0.627591"
     x="461.05728"
     y="293.86139">@wasworld.xyz</tspan></text></svg>
