<svg xmlns="http://www.w3.org/2000/svg" viewBox="0 0 600 450" width="600" height="450">
  <rect width="600" height="450" fill="#f3f4f6" />
  <!-- Photo Icon -->
  <path d="M300 200a15 15 0 1 1-30 0 15 15 0 0 1 30 0z" fill="#9ca3af" />
  <path d="M220 150a20 20 0 0 0-20 20v110a20 20 0 0 0 20 20h160a20 20 0 0 0 20-20V170a20 20 0 0 0-20-20H220zm160 10a10 10 0 0 1 10 10v65l-37.77-19.47a5 5 0 0 0-5.77.93l-37.1 37.1-26.6-17.72a5 5 0 0 0-6.3.62L210 280V170a10 10 0 0 1 10-10h160z" fill="#9ca3af" />
</svg>
